<svg xmlns="http://www.w3.org/2000/svg" version="1.1" xmlns:xlink="http://www.w3.org/1999/xlink" xmlns:svgjs="http://svgjs.dev/svgjs" width="1000" height="1000"><g clip-path="url(#SvgjsClipPath1125)"><rect width="1000" height="1000" fill="#ffffff"></rect><g transform="matrix(3.515625,0,0,3.515625,50,50)"><svg xmlns="http://www.w3.org/2000/svg" version="1.1" xmlns:xlink="http://www.w3.org/1999/xlink" xmlns:svgjs="http://svgjs.dev/svgjs" width="256" height="256"><svg xmlns="http://www.w3.org/2000/svg" fill="none" viewBox="0 0 256 256">
  <path fill="#000" d="M128 128h32v32h-32v-32Zm-32 0V96h32v32H96Zm0 0v32H64v-32h32Zm96-64h-32v32h32V64Z"></path>
  <path fill="#000" fill-rule="evenodd" d="M0 0v256h256V0H0Zm224 224h-64v-32h32v-32h32v64Zm-64-64h32v-32h32V32H32v128h32v32H32v32h96v-32h32v-32Z" clip-rule="evenodd"></path>
</svg></svg></g></g><defs><clipPath id="SvgjsClipPath1125"><rect width="1000" height="1000" x="0" y="0" rx="0" ry="0"></rect></clipPath></defs></svg>